<svg xmlns="http://www.w3.org/2000/svg" width="1200" height="800" viewBox="0 0 1200 800" role="img" aria-label="TravelBox Warehouse">
  <defs>
    <linearGradient id="bg" x1="0" x2="1" y1="0" y2="1">
      <stop offset="0%" stop-color="#0d9488"/>
      <stop offset="100%" stop-color="#155e75"/>
    </linearGradient>
  </defs>
  <rect width="1200" height="800" fill="url(#bg)"/>
  <g fill="#e6fffb" opacity="0.25">
    <rect x="90" y="110" width="220" height="120" rx="18"/>
    <rect x="350" y="190" width="280" height="150" rx="20"/>
    <rect x="690" y="110" width="420" height="240" rx="22"/>
    <rect x="130" y="300" width="370" height="210" rx="20"/>
    <rect x="540" y="380" width="540" height="260" rx="24"/>
  </g>
  <g fill="#ffffff">
    <circle cx="190" cy="640" r="36" opacity="0.8"/>
    <circle cx="260" cy="640" r="36" opacity="0.8"/>
    <rect x="150" y="470" width="150" height="135" rx="16" opacity="0.85"/>
    <rect x="520" y="180" width="110" height="80" rx="12" opacity="0.9"/>
    <rect x="680" y="200" width="280" height="26" rx="13" opacity="0.95"/>
    <rect x="680" y="245" width="220" height="20" rx="10" opacity="0.85"/>
    <rect x="680" y="280" width="180" height="20" rx="10" opacity="0.75"/>
  </g>
  <text x="680" y="520" fill="#ffffff" font-size="62" font-family="Segoe UI, Arial, sans-serif" font-weight="700">TravelBox Peru</text>
  <text x="680" y="575" fill="#c2f7f3" font-size="36" font-family="Segoe UI, Arial, sans-serif">Almacen turistico seguro</text>
</svg>
